<svg width="100" height="100" viewBox="0 0 100 100" fill="none" xmlns="http://www.w3.org/2000/svg">
<path d="M78.7999 61.2C78.7999 65 75.5999 68.2 71.8 68.2H56.2V74.2C56.2 77.4 53.6 80.2 50.1999 80.2H34.4C33.3999 80.2 32.3999 79.2 32.3999 78.2C32.3999 77.2 33.3999 76.2 34.4 76.2H50.1999C51.1999 76.2 51.9999 75.4 51.9999 74.4V56.8C51.9999 55.8 53 54.8 54 54.8C55.2 54.8 56 55.8 56 56.8V64.4H72C73.6 64.4 74.9999 63 74.9999 61.4V28C74.9999 26.4 73.6 25 72 25H38.8C37.2 25 35.8 26.4 35.8 28V38.8C35.8 39.8 34.8 40.8 33.7999 40.8C32.7999 40.8 31.7999 39.8 31.7999 38.8V28C31.7999 24.2 35 21 38.8 21H72C75.7999 21 78.9999 24.2 78.9999 28L78.7999 61.2ZM23.1999 78.4C22.7999 78.4 22.3999 78.4 22.1999 78.2C20.8001 77.6 20 76.4 20 74.6V49.6C20 46.4 22.5999 43.6 26 43.6H43.6C44.8 43.6 45.6 44.6 45.6 45.6C45.6 46.6 44.6 47.6 43.6 47.6H26C25 47.6 24.1999 48.4 24.1999 49.4V73L62 35.2H54.6C53.4 35.2 52.6 34.2 52.6 33.2C52.6 32.2 53.6 31.2 54.6 31.2H65.9999C67.5999 31.2 68.9999 32.4 68.9999 34.2V45C68.9999 46 67.9999 47 66.9999 47C65.9999 47 65 46 65 45V38.2L25.4 77.4C24.7999 78 23.9999 78.4 23.1999 78.4ZM49.9999 0C22.3999 0 0 22.4 0 50C0 77.6 22.3999 100 49.9999 100C77.5999 100 100 77.6 100 50C100 22.4 77.5999 0 49.9999 0Z" fill="white"/>
</svg>
