<svg width="270" height="77" viewBox="0 0 270 77" fill="none" xmlns="http://www.w3.org/2000/svg">
<g clip-path="url(#clip0_1208_35)">
<path d="M69.77 70.05C69.77 68.96 70.24 68.13 71.19 67.54C72.14 66.95 73.65 66.54 75.73 66.3C75.73 66.04 75.69 65.79 75.63 65.55C75.57 65.31 75.45 65.1 75.31 64.91C75.17 64.72 74.98 64.58 74.75 64.48C74.52 64.38 74.24 64.32 73.89 64.32C73.38 64.32 72.89 64.42 72.42 64.61C71.95 64.8 71.49 65.04 71.05 65.31L70.18 63.72C70.74 63.36 71.37 63.05 72.07 62.79C72.76 62.53 73.52 62.4 74.33 62.4C75.61 62.4 76.56 62.77 77.17 63.52C77.79 64.27 78.1 65.35 78.1 66.77V72.77H76.16L75.97 71.66H75.91C75.46 72.04 74.97 72.37 74.46 72.63C73.94 72.89 73.39 73.02 72.78 73.02C71.89 73.02 71.16 72.75 70.6 72.21C70.04 71.67 69.77 70.95 69.77 70.06V70.05ZM72.08 69.86C72.08 70.31 72.21 70.64 72.48 70.85C72.75 71.06 73.09 71.16 73.52 71.16C73.95 71.16 74.31 71.06 74.65 70.87C74.99 70.68 75.35 70.4 75.72 70.05V67.78C75.03 67.86 74.45 67.97 73.99 68.11C73.53 68.25 73.15 68.4 72.87 68.57C72.59 68.74 72.39 68.94 72.26 69.16C72.14 69.38 72.07 69.61 72.07 69.86H72.08Z" fill="white"/>
<path d="M80.99 62.65H82.95L83.11 64.01H83.19C83.64 63.57 84.14 63.19 84.66 62.88C85.19 62.56 85.8 62.41 86.5 62.41C87.59 62.41 88.38 62.76 88.87 63.45C89.36 64.14 89.61 65.14 89.61 66.43V72.78H87.24V66.74C87.24 65.9 87.12 65.31 86.87 64.97C86.62 64.63 86.22 64.45 85.65 64.45C85.21 64.45 84.82 64.56 84.49 64.77C84.15 64.98 83.77 65.3 83.35 65.71V72.78H80.98V62.66L80.99 62.65Z" fill="white"/>
<path d="M102.2 73.01C101.32 73.01 100.52 72.85 99.79 72.53C99.06 72.21 98.44 71.74 97.91 71.13C97.38 70.52 96.98 69.78 96.69 68.91C96.4 68.04 96.26 67.06 96.26 65.96C96.26 64.86 96.4 63.9 96.69 63.04C96.98 62.18 97.38 61.46 97.91 60.87C98.44 60.28 99.06 59.83 99.79 59.51C100.52 59.19 101.32 59.04 102.2 59.04C103.08 59.04 103.88 59.2 104.61 59.51C105.34 59.83 105.97 60.28 106.5 60.87C107.03 61.46 107.44 62.19 107.73 63.04C108.02 63.9 108.16 64.87 108.16 65.96C108.16 67.05 108.02 68.04 107.73 68.91C107.44 69.78 107.03 70.51 106.5 71.13C105.97 71.74 105.34 72.21 104.61 72.53C103.88 72.85 103.08 73.01 102.2 73.01ZM102.2 70.93C102.74 70.93 103.22 70.81 103.64 70.58C104.07 70.35 104.43 70.01 104.73 69.58C105.03 69.15 105.27 68.62 105.43 68.01C105.59 67.4 105.68 66.71 105.68 65.96C105.68 64.45 105.37 63.26 104.74 62.4C104.11 61.54 103.27 61.11 102.19 61.11C101.11 61.11 100.27 61.54 99.64 62.4C99.01 63.26 98.7 64.44 98.7 65.96C98.7 66.72 98.78 67.4 98.95 68.01C99.12 68.62 99.35 69.14 99.65 69.58C99.95 70.01 100.32 70.35 100.74 70.58C101.17 70.81 101.65 70.93 102.18 70.93H102.2Z" fill="white"/>
<path d="M108.86 59.29H111.4L113.3 66.07C113.52 66.84 113.72 67.57 113.89 68.26C114.06 68.95 114.26 69.68 114.5 70.47H114.58C114.81 69.69 115.02 68.95 115.19 68.26C115.36 67.57 115.55 66.84 115.76 66.07L117.64 59.29H120.09L115.91 72.77H113.09L108.88 59.29H108.86Z" fill="white"/>
<path d="M121.7 59.29H124.09V64.71H129.55V59.29H131.94V72.77H129.55V66.79H124.09V72.77H121.7V59.29Z" fill="white"/>
<path d="M134.5 67.72C134.5 66.88 134.64 66.13 134.91 65.47C135.18 64.81 135.56 64.25 136.02 63.8C136.49 63.35 137.03 63 137.64 62.76C138.25 62.52 138.89 62.4 139.57 62.4C140.25 62.4 140.8 62.51 141.29 62.74C141.78 62.97 142.19 63.24 142.54 63.57L141.41 65.07C141.14 64.84 140.86 64.65 140.59 64.52C140.32 64.39 140.02 64.32 139.7 64.32C138.87 64.32 138.21 64.63 137.7 65.24C137.19 65.85 136.94 66.67 136.94 67.7C136.94 68.73 137.19 69.53 137.69 70.14C138.19 70.75 138.84 71.06 139.64 71.06C140.05 71.06 140.43 70.97 140.78 70.8C141.13 70.63 141.44 70.43 141.72 70.19L142.71 71.69C142.23 72.12 141.7 72.44 141.12 72.66C140.54 72.88 139.97 72.99 139.39 72.99C138.7 72.99 138.06 72.87 137.46 72.64C136.86 72.41 136.34 72.06 135.9 71.61C135.46 71.16 135.12 70.6 134.87 69.94C134.62 69.28 134.5 68.53 134.5 67.69V67.72Z" fill="white"/>
<path d="M144.68 58.21H147.05V70.29C147.05 70.58 147.11 70.78 147.22 70.9C147.33 71.02 147.45 71.08 147.57 71.08H147.73C147.73 71.08 147.85 71.07 147.95 71.04L148.26 72.81C147.94 72.95 147.53 73.02 147 73.02C146.15 73.02 145.55 72.77 145.21 72.26C144.87 71.75 144.69 71.06 144.69 70.18V58.22L144.68 58.21Z" fill="white"/>
<path d="M149.61 67.72C149.61 66.88 149.74 66.13 150 65.47C150.26 64.81 150.61 64.25 151.06 63.8C151.51 63.35 152.02 63 152.59 62.76C153.17 62.52 153.77 62.4 154.4 62.4C155.03 62.4 155.64 62.52 156.22 62.76C156.8 63 157.32 63.35 157.76 63.8C158.2 64.25 158.55 64.81 158.82 65.47C159.09 66.13 159.22 66.88 159.22 67.72C159.22 68.56 159.09 69.31 158.82 69.97C158.55 70.63 158.2 71.19 157.76 71.64C157.32 72.09 156.81 72.44 156.22 72.67C155.63 72.9 155.03 73.02 154.4 73.02C153.77 73.02 153.16 72.9 152.59 72.67C152.01 72.44 151.5 72.09 151.06 71.64C150.61 71.19 150.26 70.63 150 69.97C149.74 69.31 149.61 68.56 149.61 67.72ZM152.04 67.72C152.04 68.74 152.25 69.55 152.67 70.16C153.09 70.77 153.67 71.08 154.41 71.08C155.15 71.08 155.74 70.77 156.16 70.16C156.58 69.55 156.8 68.73 156.8 67.72C156.8 66.71 156.59 65.87 156.16 65.26C155.73 64.65 155.15 64.34 154.41 64.34C153.67 64.34 153.09 64.65 152.67 65.26C152.25 65.87 152.04 66.69 152.04 67.72Z" fill="white"/>
<path d="M161.48 62.65H163.85V68.69C163.85 69.53 163.97 70.12 164.22 70.46C164.47 70.8 164.87 70.98 165.42 70.98C165.86 70.98 166.25 70.87 166.58 70.65C166.92 70.43 167.28 70.07 167.66 69.58V62.65H170.03V72.77H168.09L167.9 71.29H167.84C167.4 71.81 166.92 72.23 166.41 72.55C165.89 72.87 165.29 73.02 164.59 73.02C163.5 73.02 162.71 72.67 162.22 71.98C161.72 71.29 161.48 70.29 161.48 69V62.65Z" fill="white"/>
<path d="M172.43 67.72C172.43 66.9 172.55 66.15 172.79 65.49C173.03 64.83 173.35 64.27 173.75 63.82C174.15 63.37 174.61 63.02 175.12 62.77C175.64 62.52 176.17 62.4 176.72 62.4C177.3 62.4 177.78 62.5 178.18 62.7C178.58 62.9 178.98 63.17 179.37 63.51L179.29 61.88V58.21H181.66V72.76H179.7L179.53 71.67H179.45C179.08 72.04 178.65 72.36 178.15 72.62C177.66 72.88 177.13 73.01 176.58 73.01C175.3 73.01 174.29 72.55 173.54 71.62C172.79 70.69 172.42 69.39 172.42 67.71L172.43 67.72ZM174.88 67.7C174.88 68.8 175.08 69.63 175.47 70.2C175.86 70.77 176.43 71.06 177.17 71.06C177.91 71.06 178.63 70.68 179.29 69.93V65.21C178.93 64.89 178.59 64.67 178.25 64.55C177.91 64.43 177.57 64.36 177.23 64.36C176.57 64.36 176.01 64.65 175.56 65.23C175.11 65.81 174.88 66.63 174.88 67.7Z" fill="white"/>
<path d="M188.24 67.72C188.24 66.88 188.38 66.13 188.65 65.47C188.92 64.81 189.3 64.25 189.76 63.8C190.23 63.35 190.77 63 191.38 62.76C191.99 62.52 192.63 62.4 193.31 62.4C193.99 62.4 194.54 62.51 195.03 62.74C195.52 62.97 195.93 63.24 196.28 63.57L195.15 65.07C194.88 64.84 194.6 64.65 194.33 64.52C194.06 64.39 193.76 64.32 193.44 64.32C192.61 64.32 191.95 64.63 191.44 65.24C190.93 65.85 190.68 66.67 190.68 67.7C190.68 68.73 190.93 69.53 191.43 70.14C191.93 70.75 192.58 71.06 193.38 71.06C193.79 71.06 194.17 70.97 194.52 70.8C194.87 70.63 195.18 70.43 195.46 70.19L196.45 71.69C195.97 72.12 195.44 72.44 194.86 72.66C194.28 72.88 193.71 72.99 193.13 72.99C192.44 72.99 191.8 72.87 191.2 72.64C190.6 72.41 190.08 72.06 189.64 71.61C189.2 71.16 188.86 70.6 188.61 69.94C188.36 69.28 188.24 68.53 188.24 67.69V67.72Z" fill="white"/>
<path d="M197.27 67.72C197.27 66.88 197.4 66.13 197.66 65.47C197.92 64.81 198.27 64.25 198.72 63.8C199.17 63.35 199.68 63 200.25 62.76C200.83 62.52 201.43 62.4 202.06 62.4C202.69 62.4 203.3 62.52 203.88 62.76C204.46 63 204.98 63.35 205.42 63.8C205.86 64.25 206.21 64.81 206.48 65.47C206.75 66.13 206.88 66.88 206.88 67.72C206.88 68.56 206.75 69.31 206.48 69.97C206.21 70.63 205.86 71.19 205.42 71.64C204.98 72.09 204.47 72.44 203.88 72.67C203.29 72.9 202.69 73.02 202.06 73.02C201.43 73.02 200.82 72.9 200.25 72.67C199.67 72.44 199.16 72.09 198.72 71.64C198.27 71.19 197.92 70.63 197.66 69.97C197.4 69.31 197.27 68.56 197.27 67.72ZM199.7 67.72C199.7 68.74 199.91 69.55 200.33 70.16C200.75 70.77 201.33 71.08 202.07 71.08C202.81 71.08 203.4 70.77 203.82 70.16C204.24 69.55 204.46 68.73 204.46 67.72C204.46 66.71 204.25 65.87 203.82 65.26C203.39 64.65 202.81 64.34 202.07 64.34C201.33 64.34 200.75 64.65 200.33 65.26C199.91 65.87 199.7 66.69 199.7 67.72Z" fill="white"/>
<path d="M209.24 62.65H211.2L211.36 64.03H211.44C211.87 63.58 212.33 63.19 212.83 62.88C213.33 62.56 213.9 62.41 214.53 62.41C215.27 62.41 215.87 62.57 216.31 62.88C216.76 63.2 217.1 63.64 217.33 64.22C217.81 63.7 218.31 63.26 218.83 62.92C219.35 62.58 219.94 62.4 220.58 62.4C221.65 62.4 222.44 62.75 222.95 63.44C223.46 64.13 223.71 65.13 223.71 66.42V72.77H221.32V66.73C221.32 65.89 221.19 65.3 220.94 64.96C220.69 64.62 220.3 64.44 219.78 64.44C219.15 64.44 218.44 64.86 217.66 65.7V72.77H215.29V66.73C215.29 65.89 215.16 65.3 214.91 64.96C214.66 64.62 214.26 64.44 213.73 64.44C213.1 64.44 212.39 64.86 211.61 65.7V72.77H209.24V62.65Z" fill="white"/>
<path d="M228.99 73.59V76.76H226.62V62.64H228.58L228.74 63.71H228.82C229.25 63.35 229.72 63.04 230.24 62.78C230.76 62.52 231.3 62.39 231.87 62.39C232.5 62.39 233.06 62.51 233.55 62.75C234.04 62.99 234.45 63.34 234.8 63.79C235.14 64.24 235.4 64.79 235.58 65.42C235.76 66.05 235.85 66.76 235.85 67.54C235.85 68.41 235.73 69.18 235.49 69.86C235.25 70.54 234.93 71.11 234.53 71.57C234.13 72.03 233.67 72.38 233.15 72.63C232.63 72.88 232.09 73 231.52 73C231.08 73 230.64 72.9 230.2 72.71C229.76 72.52 229.33 72.24 228.92 71.89L228.98 73.58L228.99 73.59ZM228.99 70.21C229.36 70.53 229.72 70.75 230.06 70.87C230.4 70.99 230.73 71.06 231.03 71.06C231.7 71.06 232.27 70.77 232.72 70.18C233.17 69.6 233.4 68.73 233.4 67.57C233.4 66.55 233.23 65.76 232.88 65.2C232.53 64.64 231.98 64.35 231.21 64.35C230.5 64.35 229.75 64.73 228.98 65.48V70.2L228.99 70.21Z" fill="white"/>
<path d="M237.57 70.05C237.57 68.96 238.04 68.13 238.99 67.54C239.94 66.95 241.45 66.54 243.53 66.3C243.53 66.04 243.49 65.79 243.43 65.55C243.37 65.31 243.25 65.1 243.11 64.91C242.97 64.72 242.78 64.58 242.55 64.48C242.32 64.38 242.04 64.32 241.69 64.32C241.18 64.32 240.69 64.42 240.22 64.61C239.75 64.8 239.29 65.04 238.85 65.31L237.98 63.72C238.54 63.36 239.17 63.05 239.87 62.79C240.56 62.53 241.32 62.4 242.13 62.4C243.41 62.4 244.36 62.77 244.97 63.52C245.59 64.27 245.9 65.35 245.9 66.77V72.77H243.96L243.77 71.66H243.71C243.26 72.04 242.77 72.37 242.26 72.63C241.74 72.89 241.19 73.02 240.58 73.02C239.69 73.02 238.96 72.75 238.4 72.21C237.84 71.67 237.57 70.95 237.57 70.06V70.05ZM239.87 69.86C239.87 70.31 240 70.64 240.27 70.85C240.54 71.06 240.88 71.16 241.31 71.16C241.74 71.16 242.1 71.06 242.44 70.87C242.78 70.68 243.14 70.4 243.51 70.05V67.78C242.82 67.86 242.24 67.97 241.78 68.11C241.32 68.25 240.94 68.4 240.66 68.57C240.38 68.74 240.18 68.94 240.05 69.16C239.93 69.38 239.86 69.61 239.86 69.86H239.87Z" fill="white"/>
<path d="M248.78 62.65H250.74L250.9 64.01H250.98C251.43 63.57 251.93 63.19 252.45 62.88C252.98 62.56 253.59 62.41 254.29 62.41C255.38 62.41 256.17 62.76 256.66 63.45C257.15 64.14 257.4 65.14 257.4 66.43V72.78H255.03V66.74C255.03 65.9 254.91 65.31 254.66 64.97C254.41 64.63 254.01 64.45 253.44 64.45C253 64.45 252.61 64.56 252.28 64.77C251.94 64.98 251.56 65.3 251.14 65.71V72.78H248.77V62.66L248.78 62.65Z" fill="white"/>
<path d="M260.46 74.96C260.59 74.99 260.72 75.01 260.84 75.01C261.38 75.01 261.81 74.85 262.13 74.53C262.45 74.21 262.7 73.79 262.86 73.28L263.05 72.64L259.07 62.64H261.48L263.23 67.61C263.38 68.05 263.53 68.51 263.67 69C263.81 69.49 263.96 69.97 264.11 70.45H264.19C264.31 69.98 264.44 69.51 264.57 69.02C264.7 68.53 264.83 68.06 264.95 67.61L266.48 62.64H268.77L265.1 73.21C264.89 73.79 264.67 74.3 264.42 74.76C264.17 75.21 263.89 75.6 263.56 75.92C263.24 76.24 262.87 76.49 262.45 76.66C262.03 76.83 261.55 76.92 261 76.92C260.73 76.92 260.48 76.9 260.28 76.87C260.07 76.84 259.87 76.78 259.68 76.71L260.11 74.85C260.21 74.88 260.32 74.91 260.45 74.94L260.46 74.96Z" fill="white"/>
<path fill-rule="evenodd" clip-rule="evenodd" d="M28.48 0C12.74 0 0 12.74 0 28.48C0 44.22 12.74 56.96 28.48 56.96C44.22 56.96 56.96 44.22 56.96 28.48C56.96 12.74 44.22 0 28.48 0ZM13.19 44.66C12.97 44.66 12.74 44.61 12.56 44.53C11.8 44.22 11.31 43.46 11.31 42.43V28.3C11.31 26.42 12.83 24.9 14.71 24.9H24.72C25.35 24.9 25.88 25.44 25.88 26.06C25.88 26.68 25.34 27.22 24.72 27.22H14.71C14.13 27.22 13.64 27.71 13.64 28.29V41.7L35.14 20.2H30.94C30.31 20.2 29.78 19.66 29.78 19.04C29.78 18.42 30.32 17.88 30.94 17.88H37.42C38.31 17.88 39.07 18.6 39.07 19.53V25.7C39.07 26.32 38.53 26.86 37.91 26.86C37.29 26.86 36.75 26.32 36.75 25.7V21.81L14.49 44.07C14.13 44.43 13.69 44.65 13.19 44.65M44.93 34.87C44.93 37.06 43.14 38.8 41 38.8H32.06V42.24C32.06 44.12 30.54 45.64 28.66 45.64H19.63C19 45.64 18.47 45.1 18.47 44.48C18.47 43.86 19.01 43.32 19.63 43.32H28.66C29.24 43.32 29.73 42.83 29.73 42.25V32.23C29.73 31.6 30.27 31.07 30.89 31.07C31.51 31.07 32.05 31.61 32.05 32.23V36.52H40.99C41.88 36.52 42.64 35.76 42.64 34.87V15.96C42.64 15.07 41.88 14.31 40.99 14.31H22.08C21.19 14.31 20.43 15.07 20.43 15.96V22.08C20.43 22.71 19.89 23.24 19.27 23.24C18.65 23.24 18.11 22.7 18.11 22.08V15.96C18.11 13.77 19.9 12.03 22.05 12.03H40.96C43.15 12.03 44.89 13.82 44.89 15.96L44.94 34.87H44.93Z" fill="white"/>
<path d="M91.43 15.83H90.63C89.82 15.83 89.42 16.28 89.42 16.95V19.05C89.42 19.54 89.51 19.9 89.51 19.9H89.42C89.42 19.9 87.68 15.21 81.06 15.21C73.95 15.21 69.75 20.44 69.75 28C69.75 35.56 74.27 41.28 81.15 41.28C85.17 41.28 87.77 39.4 89.29 36.5H89.38C89.38 36.5 89.25 37.35 89.25 38.33V40.97C89.25 46.69 85.18 49.02 80.44 49.02C77.58 49.02 75.61 48.21 74.49 47.68C73.68 47.37 73.19 47.59 72.88 48.26L72.57 48.97C72.21 49.73 72.44 50.22 73.2 50.58C75.35 51.57 77.94 52.1 80.58 52.1C86.7 52.1 92.74 48.93 92.74 40.79V17.1C92.69 16.3 92.25 15.85 91.44 15.85M81.64 38.18C76.59 38.18 73.28 34.29 73.28 27.9C73.28 22 76.14 18.33 81.33 18.33C85.62 18.33 89.29 20.65 89.29 28.25C89.29 35.85 85.71 38.17 81.64 38.17" fill="white"/>
<path d="M112.39 15.65C108.32 15.65 105.37 18.87 104.16 22.58H104.07C104.07 22.58 104.29 21.69 104.29 20.52V17.03C104.29 16.22 103.84 15.78 103.08 15.78H102.14C101.34 15.78 100.84 16.23 100.84 17.03V40.1C100.84 40.9 101.29 41.35 102.14 41.35H103.12C103.93 41.35 104.33 40.9 104.33 40.1V30.58C104.33 25.22 106.92 19.09 112.33 19.09C113.18 19.09 113.76 18.65 113.76 17.84V16.95C113.71 16.06 113.31 15.65 112.37 15.65" fill="white"/>
<path d="M121.43 5.63H120.13C119.32 5.63 118.92 6.08 118.92 6.93V8.76C118.92 9.56 119.32 9.97001 120.13 9.97001H121.43C122.23 9.97001 122.64 9.57 122.64 8.76V6.93C122.68 6.08 122.28 5.63 121.43 5.63Z" fill="white"/>
<path d="M121.29 15.83H120.31C119.5 15.83 119.01 16.28 119.01 17.08V40.15C119.01 40.95 119.46 41.4 120.31 41.4H121.29C122.09 41.4 122.5 40.95 122.5 40.15V17.08C122.5 16.28 122.1 15.83 121.29 15.83Z" fill="white"/>
<path d="M151.2 5.63H150.21C149.41 5.63 148.91 6.08 148.91 6.93V18.42C148.91 19.49 149.04 20.34 149.04 20.34H149C149 20.34 146.81 15.2 140.59 15.2C133.88 15.2 129.1 20.48 129.1 28.61C129.1 36.74 133.39 42.07 140.23 42.07C147.07 42.07 149.13 36.7 149.13 36.7H149.22C149.22 36.7 149 37.37 149 38.27V40.19C149 41 149.45 41.4 150.3 41.4H151.15C151.96 41.4 152.36 40.95 152.36 40.15V6.89C152.4 6.09 152 5.64 151.2 5.64M140.78 38.94C136 38.94 132.69 34.92 132.69 28.61C132.69 22.3 136.4 18.37 140.96 18.37C146.46 18.37 149.1 23.42 149.1 28.61C149.05 35.85 145.03 38.94 140.78 38.94Z" fill="white"/>
<path d="M162.96 22.22C162.96 19.4 165.28 18.24 168.01 18.24C170.74 18.24 172.53 19.22 173.51 19.85C174.23 20.25 174.85 20.21 175.25 19.49L175.61 18.91C176.01 18.24 175.92 17.66 175.25 17.21C174.18 16.45 171.9 15.11 168.23 15.11C163.54 15.11 159.51 17.57 159.51 22.31C159.51 30.76 173.19 29.02 173.19 34.78C173.19 37.46 170.87 38.89 168 38.89C164.69 38.89 162.37 37.41 161.25 36.57C160.53 36.12 159.95 36.17 159.51 36.75L159.11 37.24C158.66 37.91 158.71 38.49 159.33 38.98C160.63 40.05 163.49 41.93 168 41.93C173.1 41.93 176.67 38.94 176.67 34.69C176.58 26.24 162.95 28.12 162.95 22.22" fill="white"/>
<path d="M203.02 36.53C202.57 35.81 201.99 35.73 201.32 36.22C200.11 37.25 197.65 38.9 194.08 38.9C188.45 38.9 184.07 34.7 184.07 28.62C184.07 22.54 188.45 18.29 194.04 18.29C197.17 18.29 199.41 19.77 200.52 20.61C201.24 21.06 201.82 21.06 202.26 20.34L202.62 19.76C203.11 19.09 203.07 18.51 202.49 18.02C201.19 16.99 198.38 15.11 194 15.11C186.4 15.11 180.54 20.66 180.54 28.57C180.54 36.48 186.35 41.98 194 41.98C198.74 41.98 201.78 39.79 203.12 38.72C203.7 38.23 203.84 37.65 203.43 36.98L203.03 36.53H203.02Z" fill="white"/>
<path d="M217.9 15.2C213.92 15.2 211.06 16.63 209.76 17.44C209.09 17.84 209 18.51 209.4 19.18L209.71 19.67C210.15 20.34 210.74 20.43 211.45 20.07C212.61 19.35 214.8 18.28 217.66 18.28C221.28 18.28 223.96 19.98 223.96 24.9V25.75H222.48C217.56 25.75 206.83 26.2 206.83 34.56C206.83 39.52 211.17 42.03 215.5 42.03C221.85 42.03 224.22 36.17 224.17 36.17H224.26C224.26 36.17 224.13 36.93 224.13 38.09V40.15C224.13 41 224.58 41.4 225.38 41.4H226.19C226.99 41.4 227.4 40.95 227.4 40.15V25.04C227.4 18.6 224 15.2 217.88 15.2M223.98 29.55C223.98 34.02 221.07 39.12 216.16 39.12C212.36 39.12 210.44 36.62 210.44 34.25C210.44 28.48 218.53 28.35 222.56 28.35H223.99V29.56L223.98 29.55Z" fill="white"/>
<path d="M241.15 38.45C240.03 38.32 238.51 37.96 238.51 34.74V6.89C238.51 6.08 238.06 5.59 237.26 5.59H236.27C235.47 5.59 235.06 6.04 235.06 6.89V35.37C235.06 40.96 238.81 41.63 240.92 41.63C241.9 41.63 242.26 41.14 242.26 40.38V39.62C242.22 38.86 241.72 38.55 241.14 38.46" fill="white"/>
<path d="M269.14 27.4C269.14 20.11 265.25 15.2 258.45 15.2C251.65 15.2 245.8 20.25 245.8 28.66C245.8 36.57 251.57 42.07 259.21 42.07C263.32 42.07 266.41 40.24 267.75 39.21C268.38 38.76 268.47 38.14 268.11 37.51L267.71 36.88C267.31 36.21 266.72 36.12 266.01 36.57C264.85 37.51 262.48 38.9 259.3 38.9C254.02 38.9 249.51 35.19 249.38 28.66H267.8C268.56 28.7 269.14 28.12 269.14 27.41M249.51 26.11C250.31 20.92 254.03 18.06 258.32 18.06C262.12 18.06 265.38 20.7 265.61 26.11H249.52H249.51Z" fill="white"/>
</g>
<defs>
<clipPath id="clip0_1208_35">
<rect width="270" height="77" fill="white"/>
</clipPath>
</defs>
</svg>
